Coordinates																		
version=1																		
nRows=40																		
nColumns=19																		
inDegrees=yes																		
																		
"Units are S.I. units (second, meters, Newtons, ...)"																		
"If the header above contains a line with 'inDegrees', this indicates whether rotational values are in degrees (yes) or radians (no)."																		
																		
endheader																		
time	pelvis_tilt_global	pelvis_list_global	pelvis_rotation_global	pelvis_tx_global	pelvis_ty_global	pelvis_tz_global	hip_flexion_r	hip_adduction_r	hip_rotation_r	knee_flexion_r	ankle_dorsiflexion_r	hip_flexion_l	hip_adduction_l	hip_rotation_l	knee_flexion_l	ankle_dorsiflexion_l	pelvis_tilt	pelvis_rotation
3.61	-13.44574868	0	0	0.95726007	0.61686952	-0.33966688	1.42940761	0	0	-18.13046159	0.31880761	47.4383079	0	0	-67.64827073	7.30858419	-0.50511921	0
3.62	-13.61965612	0	0	0.95930711	0.62343083	-0.33964388	-0.65366368	0	0	-16.40570211	-4.61236018	47.07415608	0	0	-61.94883206	7.56167505	-0.22408555	0
3.63	-13.74486457	0	0	0.9611115	0.62943931	-0.33986073	-2.4628158	0	0	-15.16887574	-9.19269676	46.39846784	0	0	-55.86461627	7.58802319	-0.03783091	0
3.64	-13.78388814	0	0	0.96272554	0.6347945	-0.34050808	-4.03806994	0	0	-14.44521007	-13.21122578	45.37664656	0	0	-49.43564786	7.26616189	0.04018547	0
3.65	-13.74891797	0	0	0.96426544	0.63930697	-0.34156078	-5.34523947	0	0	-14.30827395	-16.60890981	44.02747713	0	0	-42.7541018	6.52276063	0.05800897	0
3.66	-13.65813472	0	0	0.96579985	0.64277861	-0.34278294	-6.32038203	0	0	-14.90369	-19.38102122	42.40131554	0	0	-35.97491595	5.40618319	0.04930479	0
3.67	-13.53449558	0	0	0.96728878	0.64506008	-0.34387982	-6.89237752	0	0	-16.40453771	-21.4122507	40.59915688	0	0	-29.32767102	4.11692272	0.02881055	0
3.68	-13.38777395	0	0	0.96866173	0.6461383	-0.34466218	-7.04830786	0	0	-18.88211054	-22.48649092	38.73330183	0	0	-23.08672936	2.91790246	-0.00778915	0
3.69	-13.21523438	0	0	0.96990829	0.64612983	-0.3450815	-6.84846365	0	0	-22.22531038	-22.49441095	36.90992547	0	0	-17.5429016	1.98276441	-0.06758142	0
3.7	-12.99915802	0	0	0.9710987	0.64520237	-0.34519742	-6.40151775	0	0	-26.19460463	-21.61577309	35.21934779	0	0	-12.98624619	1.37466334	-0.16706207	0
3.71	-12.73484705	0	0	0.97228313	0.64344473	-0.34517356	-5.77815776	0	0	-30.57447623	-20.25205721	33.76538686	0	0	-9.6688713	1.16920449	-0.31248018	0
3.72	-12.45876243	0	0	0.97340175	0.64078842	-0.34522754	-4.95194028	0	0	-35.26744459	-18.78492441	32.6600004	0	0	-7.71505073	1.47275799	-0.46984689	0
3.73	-12.24052595	0	0	0.97431713	0.63704124	-0.34550466	-3.82976123	0	0	-40.27121444	-17.40250404	31.96723667	0	0	-7.05705018	2.16296232	-0.56514225	0
3.74	-12.1403919	0	0	0.97495842	0.63202899	-0.34593599	-2.35172517	0	0	-45.55626063	-16.13749075	31.65863702	0	0	-7.47547496	2.6360351	-0.52166553	0
3.75	-12.17007494	0	0	0.97542446	0.62571103	-0.34629482	-0.54886071	0	0	-51.01019381	-14.96697882	31.62675423	0	0	-8.72024195	2.12753403	-0.30475567	0
3.76	-12.30698532	0	0	0.97583252	0.61820036	-0.346406	1.50234105	0	0	-56.4887311	-13.83518972	31.79587394	0	0	-10.66677615	0.60649922	0.06808098	0
3.77	-12.52991664	0	0	0.97600637	0.60975953	-0.34634281	3.76780371	0	0	-61.91613784	-12.64370981	32.25384786	0	0	-13.47061754	-0.67985085	0.5280054	0
3.78	-12.83806441	0	0	0.97539808	0.60078406	-0.34639358	6.27344591	0	0	-67.28316903	-11.27078158	33.25637164	0	0	-17.52502892	-0.09748202	0.97723373	0
3.79	-13.193101	0	0	0.97357511	0.59177645	-0.34681236	8.98834779	0	0	-72.55442931	-9.67901519	34.91030628	0	0	-22.96075771	2.71438322	1.29070227	0
3.8	-13.4939082	0	0	0.97074619	0.58328845	-0.3475486	11.7608727	0	0	-77.58853932	-7.94530401	36.79912267	0	0	-29.04577925	6.48442878	1.35765742	0
3.81	-13.68349044	0	0	0.96759516	0.57577462	-0.34816872	14.50390563	0	0	-82.20391149	-6.18446514	38.20377424	0	0	-34.50855038	9.87920051	1.21429414	0
3.82	-13.81285594	0	0	0.96467801	0.56945417	-0.34816486	17.31679505	0	0	-86.27996177	-4.46576465	38.69311779	0	0	-38.49022407	12.67916472	1.04141404	0
3.83	-13.96483754	0	0	0.96215581	0.56441822	-0.34745171	20.33177109	0	0	-89.78284587	-2.79857341	38.29824435	0	0	-40.91040563	15.30297728	0.98431381	0
3.84	-14.18383085	0	0	0.95993859	0.56077239	-0.3465258	23.55605535	0	0	-92.71292498	-1.17817147	37.29497216	0	0	-42.14162556	17.87831515	1.06220341	0
3.85	-14.46246321	0	0	0.9579244	0.55860374	-0.345969	26.88814564	0	0	-95.04406706	0.34795106	35.93570297	0	0	-42.57876176	20.09728562	1.23151905	0
3.86	-14.7558291	0	0	0.95613895	0.55791667	-0.34588641	30.18106794	0	0	-96.71187796	1.69484776	34.28869485	0	0	-42.40185792	21.67996427	1.44252533	0
3.87	-15.01751924	0	0	0.9547317	0.55866427	-0.34593942	33.2933221	0	0	-97.64573418	2.79328356	32.27510574	0	0	-41.6017399	22.63897574	1.67292833	0
3.88	-15.22513541	0	0	0.95388942	0.56079472	-0.34582441	36.13150319	0	0	-97.8131294	3.63762002	29.82595202	0	0	-40.14350605	23.12342457	1.93669805	0
3.89	-15.3840695	0	0	0.95371606	0.56425171	-0.3455083	38.6671984	0	0	-97.23563149	4.28619626	26.98668132	0	0	-38.0866252	23.14666607	2.26036363	0
3.9	-15.5007685	0	0	0.95416786	0.56892504	-0.34509489	40.89487498	0	0	-95.97656709	4.81716999	23.88157668	0	0	-35.59473659	22.53725178	2.63406186	0
3.91	-15.58446878	0	0	0.95510981	0.57460313	-0.34461431	42.80555079	0	0	-94.09948038	5.30564987	20.65644524	0	0	-32.87410031	21.09592385	3.03617732	0
3.92	-15.64280002	0	0	0.95645457	0.58102205	-0.34401763	44.36934824	0	0	-91.64071833	5.80752519	17.41553887	0	0	-30.07762018	18.71838834	3.45311586	0
3.93	-15.69714977	0	0	0.95818534	0.58791452	-0.34327552	45.57481144	0	0	-88.61591355	6.35430646	14.23602086	0	0	-27.28894064	15.43517693	3.89876992	0
3.94	-15.76370048	0	0	0.9602763	0.59504883	-0.3424251	46.44297746	0	0	-85.05362876	6.9212002	11.1765984	0	0	-24.56725942	11.39690261	4.37561198	0
3.95	-15.83987486	0	0	0.96261858	0.60221892	-0.34155217	47.0167052	0	0	-81.01187469	7.42345018	8.28150913	0	0	-21.99314185	6.84168129	4.8522982	0
3.96	-15.92156573	0	0	0.96503987	0.60921053	-0.34073518	47.34437694	0	0	-76.56044829	7.78647394	5.59183819	0	0	-19.65927956	2.0253974	5.29721022	0
3.97	-16.02420224	0	0	0.96738304	0.61580433	-0.33999596	47.46366534	0	0	-71.7448332	8.0134118	3.15451464	0	0	-17.63790665	-2.83794807	5.71730149	0
3.98	-16.18041214	0	0	0.96956146	0.62180985	-0.33929079	47.39555652	0	0	-66.57410913	8.17294376	1.02685854	0	0	-15.97902722	-7.58283951	6.15916488	0
3.99	-16.39775683	0	0	0.97155371	0.6271242	-0.33856626	47.12916598	0	0	-61.04365933	8.29996413	-0.75104497	0	0	-14.73075585	-12.05101542	6.65047504	0
4	-16.62821834	0	0	0.97335978	0.63173779	-0.3378319	46.61550223	0	0	-55.16840751	8.32320353	-2.17332582	0	0	-13.97769459	-16.06623337	7.14932771	0
